<svg width="80" height="80" viewBox="0 0 80 80" fill="none" xmlns="http://www.w3.org/2000/svg">
<path fill-rule="evenodd" clip-rule="evenodd" d="M44.6823 0.0641865C54.7705 1.3635 45.8133 17.6923 53.8843 22.5662C59.2492 25.8058 66.2722 15.6166 72.8133 17.0517C77.7092 18.1258 78.1625 24.0115 78.4432 27.9544C78.7148 31.7685 74.7842 35.061 74.3667 38.8672C74.0278 41.9563 75.565 44.9179 76.2472 47.9726C77.2525 52.4743 81.5841 57.1041 79.3856 61.3423C77.413 65.1448 69.8468 64.9157 66.0007 67.725C61.1824 71.2443 60.3802 81.323 54.0399 79.855C45.1809 77.8037 48.6445 63.4882 39.7122 61.6381C31.6587 59.9701 27.6124 71.5354 19.4092 72.6824C12.5742 73.638 -0.137314 72.5798 0.0011215 67.1905C0.22524 58.4656 18.2909 55.0493 20.0835 46.4343C21.0264 41.9026 6.79065 42.7743 6.02874 38.2221C5.37263 34.302 14.4157 33.6597 17.4102 30.4621C19.8568 27.8495 18.4774 23.4756 21.7276 21.4586C25.042 19.4018 31.5003 22.564 34.2159 20.033C40.1915 14.4636 35.4702 -1.12228 44.6823 0.0641865Z" fill="url(#paint0_linear_4_11)"/>
<defs>
<linearGradient id="paint0_linear_4_11" x1="40" y1="0" x2="40" y2="80" gradientUnits="userSpaceOnUse">
<stop stop-color="white"/>
<stop offset="0.75" stop-color="#4E60BC"/>
</linearGradient>
</defs>
</svg>
